<?xml version="1.0" encoding="UTF-8" standalone="no"?>
<svg width="56px" height="64px" viewBox="0 0 56 64" version="1.1" xmlns="http://www.w3.org/2000/svg" xmlns:xlink="http://www.w3.org/1999/xlink" xmlns:sketch="http://www.bohemiancoding.com/sketch/ns">
    <!-- Generator: Sketch 3.4.4 (17249) - http://www.bohemiancoding.com/sketch -->
    <title>Fan</title>
    <desc>Created with Sketch.</desc>
    <defs></defs>
    <g id="Page-1" stroke="none" stroke-width="1" fill="none" fill-rule="evenodd" sketch:type="MSPage">
        <g id="APPLIANCES_fan" sketch:type="MSLayerGroup" transform="translate(-148.000000, -149.000000)" fill="#00BCD4">
            <g id="Fan" transform="translate(148.000000, 149.000000)" sketch:type="MSShapeGroup">
                <path d="M56,28 C56,12.6 43.4,0 28,0 C12.6,0 0,12.6 0,28 C0,42.1 10.4,53.8 24,55.7 L24,58 L16,58 C14.5,58 13,59.5 13,61 C13,62.5 14.5,64 16,64 L40,64 C41.6,64 43,62.7 43,61 C43,59.3 41.6,58 40,58 L32,58 L32,55.7 C45.6,53.8 56,42.1 56,28 L56,28 Z M2,28 C2,13.7 13.7,2 28,2 C42.3,2 54,13.7 54,28 C54,42.3 42.3,54 28,54 C13.7,54 2,42.3 2,28 L2,28 Z M40,60 C40.6,60 41,60.5 41,61 C41,61.5 40.6,62 40,62 L16,62 C15.6,62 15,61.4 15,61 C15,60.6 15.6,60 16,60 L24,60 L32,60 L40,60 L40,60 Z M30,58 L26,58 L26,55.9 C26.7,55.9 27.3,56 28,56 C28.7,56 29.3,56 30,55.9 L30,58 L30,58 Z" id="Shape"></path>
                <path d="M35.2,35.1 C34.5,33.5 33.1,31.9 32.1,30.8 C32.5,30.2 32.8,29.4 32.9,28.6 C33.8,28.6 34.9,28.9 37.4,30.9 C37.5,31 37.7,31.1 37.9,31.3 C39.2,32.3 41.2,34 43.6,34 C44.5,34 45.5,33.7 46.5,33.1 C48.2,31.9 49.2,29.8 49.2,26.9 C49.2,23.1 47.2,17.9 43.5,15.5 C37.9,11.9 32.6,14.2 30,18.2 C29.1,19.5 28.3,21.5 27.8,23.1 C27.1,23.1 26.5,23.3 25.9,23.5 C25.4,22.7 25,21.6 25.3,18.4 C25.3,18.2 25.3,18 25.4,17.8 C25.6,15.5 26.1,11.3 22.2,9.6 C20.3,8.8 17.9,9.2 15.6,10.7 C12.4,12.8 9.2,17.3 9.2,21.7 C9.2,28.4 14.1,31.5 18.8,31.6 L19,31.6 C20.7,31.6 22.6,31.1 23.9,30.8 C24.2,31.3 24.6,31.6 25,32 C24.5,32.8 23.5,33.9 20.5,35.1 C20.3,35.2 20.1,35.2 19.9,35.3 C17.8,36.1 13.8,37.6 14,41.8 C14.1,43.9 15.5,45.8 17.9,47.2 C19.9,48.4 22.8,49.2 25.6,49.2 C27.3,49.2 29.1,48.9 30.6,48.1 C36.6,45.1 37.2,39.4 35.2,35.1 L35.2,35.1 Z M25,28 C25,26.3 26.3,25 28,25 C29.7,25 31,26.3 31,28 C31,29.7 29.7,31 28,31 C26.3,31 25,29.7 25,28 L25,28 Z M31.6,19.2 C33.6,16.3 37.6,14 42.4,17.1 C45.1,18.8 47.1,23 47.2,26.8 C47.2,28 47,30.3 45.4,31.3 C43.3,32.7 41.3,31.3 39.2,29.6 C39,29.5 38.8,29.3 38.7,29.2 C35.7,26.9 34.2,26.6 32.8,26.5 C32.4,25 31.3,23.8 29.8,23.3 C30.2,22 30.9,20.3 31.6,19.2 L31.6,19.2 Z M18.8,29.6 C15.3,29.5 11.2,27.4 11.1,21.7 C11.1,18.5 13.5,14.5 16.6,12.4 C17.6,11.7 19.6,10.7 21.3,11.4 C23.6,12.4 23.6,14.9 23.3,17.5 C23.3,17.7 23.3,18 23.2,18.2 C22.9,22.2 23.6,23.6 24.2,24.6 C23.5,25.5 23,26.7 23,28 C23,28.3 23,28.6 23.1,28.9 C21.9,29.2 20.2,29.6 18.8,29.6 L18.8,29.6 Z M18.9,45.4 C17.8,44.8 16,43.5 16,41.6 C15.9,39.1 18.1,38 20.6,37.1 C20.8,37 21,36.9 21.2,36.9 C25,35.4 26.1,33.9 26.7,32.9 C27.1,33 27.5,33.1 28,33.1 C29,33.1 29.9,32.8 30.7,32.3 C31.5,33.2 32.8,34.7 33.4,36 C34.9,39.2 34.8,43.8 29.7,46.4 C26.8,47.7 22.2,47.3 18.9,45.4 L18.9,45.4 Z" id="Shape"></path>
            </g>
        </g>
    </g>
</svg>