<?xml version="1.0" encoding="UTF-8" standalone="no"?>
<svg width="65px" height="46px" viewBox="0 0 65 46" version="1.1" xmlns="http://www.w3.org/2000/svg" xmlns:xlink="http://www.w3.org/1999/xlink" xmlns:sketch="http://www.bohemiancoding.com/sketch/ns">
    <!-- Generator: Sketch 3.4.4 (17249) - http://www.bohemiancoding.com/sketch -->
    <title>microwave</title>
    <desc>Created with Sketch.</desc>
    <defs></defs>
    <g id="Page-1" stroke="none" stroke-width="1" fill="none" fill-rule="evenodd" sketch:type="MSPage">
        <g id="microwave" sketch:type="MSLayerGroup" fill="#FFC107">
            <g id="Page-1" sketch:type="MSShapeGroup">
                <g id="APPLIANCES_microwave">
                    <g id="microwave">
                        <path d="M55.7,0 L8.3,0 C3.9,0 0,3.9 0,8.2 L0,37.8 C0,42.1 3.9,46 8.3,46 L55.8,46 C60.1,46 64.1,42.1 64.1,37.8 L64.1,8.2 C64,3.9 60.1,0 55.7,0 L55.7,0 L55.7,0 Z M62,37.8 C62,41 59,44 55.7,44 L8.3,44 C5,44 2,41 2,37.8 L2,8.2 C2,5 5,2 8.3,2 L55.8,2 C59,2 62.1,5 62.1,8.2 L62.1,37.8 L62,37.8 L62,37.8 Z" id="Shape"></path>
                        <path d="M40,7 L14,7 C10.3,7 7,10.1 7,13.5 L7,32.6 C7,36 10.3,39 14,39 L40,39 L40,39 C43.4,39 47,37 47,33.5 L47,13.5 C47,10.1 43.7,7 40,7 L40,7 L40,7 Z M45,33.5 C45,35.8 42.4,37 40,37 L14,37 C11.4,37 9,34.8 9,32.5 L9,13.5 C9,11.2 11.4,9 14,9 L40,9 C42.6,9 45,11.2 45,13.5 L45,33.5 L45,33.5 L45,33.5 Z" id="Shape"></path>
                        <path d="M31,19.9 C31,16.8 33.2,16 33.3,15.9 C33.8,15.7 34.1,15.2 33.9,14.6 C33.7,14.1 33.2,13.8 32.6,14 C32.4,14.1 28.9,15.3 28.9,19.9 C28.9,21.3 29.8,22.6 30.7,23.7 C31.3,24.5 31.9,25.4 31.9,26 C31.9,27.3 31,28.7 29.3,30.1 C28.9,30.5 28.8,31.1 29.2,31.5 C29.4,31.7 29.7,31.9 30,31.9 C30.2,31.9 30.4,31.8 30.6,31.7 C32.9,29.8 34,28 34,26 C34,24.7 33.2,23.6 32.4,22.5 C31.7,21.7 31,20.7 31,19.9 L31,19.9 L31,19.9 Z" id="Shape"></path>
                        <path d="M22,19.9 C22,16.8 24.2,16 24.3,15.9 C24.8,15.7 25.1,15.2 24.9,14.6 C24.7,14.1 24.2,13.8 23.6,14 C23.4,14.1 19.9,15.3 19.9,19.9 C19.9,21.3 20.8,22.6 21.7,23.7 C22.3,24.5 22.9,25.4 22.9,26 C22.9,27.3 22,28.7 20.3,30.1 C19.9,30.5 19.8,31.1 20.2,31.5 C20.4,31.7 20.7,31.9 21,31.9 C21.2,31.9 21.4,31.8 21.6,31.7 C23.9,29.8 25,28 25,26 C25,24.7 24.2,23.6 23.4,22.5 C22.7,21.7 22,20.7 22,19.9 L22,19.9 L22,19.9 Z" id="Shape"></path>
                        <path d="M54,30 C51.8,30 50,31.8 50,34 C50,36.2 51.8,38 54,38 C56.2,38 58,36.2 58,34 C58,31.8 56.2,30 54,30 L54,30 L54,30 Z M54,36 C52.9,36 52,35.1 52,34 C52,32.9 52.9,32 54,32 C55.1,32 56,32.9 56,34 C56,35.1 55.1,36 54,36 L54,36 L54,36 Z" id="Shape"></path>
                        <path d="M54,19 C51.8,19 50,20.8 50,23 C50,25.2 51.8,27 54,27 C56.2,27 58,25.2 58,23 C58,20.8 56.2,19 54,19 L54,19 L54,19 Z M54,25 C52.9,25 52,24.1 52,23 C52,21.9 52.9,21 54,21 C55.1,21 56,21.9 56,23 C56,24.1 55.1,25 54,25 L54,25 L54,25 Z" id="Shape"></path>
                        <path d="M54,8 C51.8,8 50,9.8 50,12 C50,14.2 51.8,16 54,16 C56.2,16 58,14.2 58,12 C58,9.8 56.2,8 54,8 L54,8 L54,8 Z M54,14 C52.9,14 52,13.1 52,12 C52,10.9 52.9,10 54,10 C55.1,10 56,10.9 56,12 C56,13.1 55.1,14 54,14 L54,14 L54,14 Z" id="Shape"></path>
                    </g>
                </g>
            </g>
        </g>
    </g>
</svg>