<?xml version="1.0" encoding="UTF-8" standalone="no"?>
<svg width="47px" height="64px" viewBox="0 0 47 64" version="1.1" xmlns="http://www.w3.org/2000/svg" xmlns:xlink="http://www.w3.org/1999/xlink" xmlns:sketch="http://www.bohemiancoding.com/sketch/ns">
    <!-- Generator: Sketch 3.4.4 (17249) - http://www.bohemiancoding.com/sketch -->
    <title>refrigerator</title>
    <desc>Created with Sketch.</desc>
    <defs></defs>
    <g id="Page-1" stroke="none" stroke-width="1" fill="none" fill-rule="evenodd" sketch:type="MSPage">
        <g id="APPLIANCES_refrigerator" sketch:type="MSLayerGroup" transform="translate(-435.000000, -337.000000)" fill="#673AB7">
            <g id="refrigerator" transform="translate(435.000000, 337.000000)" sketch:type="MSShapeGroup">
                <path d="M38.3,0 L7.7,0 C3.5,0 -3.55271368e-15,3.5 -3.55271368e-15,7.5 L-3.55271368e-15,22 L-3.55271368e-15,24 L-3.55271368e-15,56.5 C-3.55271368e-15,60.5 3.5,64 7.7,64 L38.4,64 C42.5,64 46.1,60.5 46.1,56.5 L46.1,24 L46.1,22 L46.1,7.5 C46,3.5 42.4,0 38.3,0 L38.3,0 Z M44,56.5 C44,59.4 41.4,62 38.3,62 L7.7,62 C4.7,62 2,59.4 2,56.5 L2,24 L44,24 L44,56.5 L44,56.5 Z M2,22 L2,7.5 C2,4.6 4.6,2 7.7,2 L38.3,2 C41.3,2 44,4.6 44,7.5 L44,22 L2,22 L2,22 Z" id="Shape"></path>
                <path d="M7.5,5 C6.1,5 5,6.1 5,7.5 L5,16.5 C5,17.9 6.1,19 7.5,19 C8.9,19 10,17.9 10,16.5 L10,7.5 C10,6.1 8.9,5 7.5,5 L7.5,5 Z M8,16.5 C8,16.8 7.8,17 7.5,17 C7.2,17 7,16.8 7,16.5 L7,7.5 C7,7.2 7.2,7 7.5,7 C7.8,7 8,7.2 8,7.5 L8,16.5 L8,16.5 Z" id="Shape"></path>
                <path d="M7.5,45.8 C8.9,45.8 10,44.7 10,43.4 L10,29.3 C10,28 8.9,26.9 7.5,26.9 C6.1,26.9 5,27.9 5,29.3 L5,43.4 C5,44.7 6.1,45.8 7.5,45.8 L7.5,45.8 Z M7,29.3 C7,29.1 7.2,28.9 7.5,28.9 C7.8,28.9 8,29.1 8,29.3 L8,43.4 C8,43.6 7.8,43.8 7.5,43.8 C7.2,43.8 7,43.6 7,43.4 L7,29.3 L7,29.3 Z" id="Shape"></path>
                <path d="M40,10.1 C39.4,10.1 39,10.5 39,11.1 L39,18 C39,18.6 39.4,19 40,19 C40.6,19 41,18.6 41,18 L41,11.1 C41,10.6 40.6,10.1 40,10.1 L40,10.1 Z" id="Shape"></path>
                <path d="M40,53.7 C40.6,53.7 41,53.3 41,52.7 L41,28.1 C41,27.5 40.6,27.1 40,27.1 C39.4,27.1 39,27.5 39,28.1 L39,52.7 C39,53.2 39.4,53.7 40,53.7 L40,53.7 Z" id="Shape"></path>
                <path d="M40,5.5 C39.4,5.5 39,5.9 39,6.5 L39,7.6 C39,8.2 39.4,8.6 40,8.6 C40.6,8.6 41,8.2 41,7.6 L41,6.5 C41,5.9 40.6,5.5 40,5.5 L40,5.5 Z" id="Shape"></path>
            </g>
        </g>
    </g>
</svg>