<?xml version="1.0" encoding="UTF-8" standalone="no"?>
<svg width="50px" height="64px" viewBox="0 0 50 64" version="1.1" xmlns="http://www.w3.org/2000/svg" xmlns:xlink="http://www.w3.org/1999/xlink" xmlns:sketch="http://www.bohemiancoding.com/sketch/ns">
    <!-- Generator: Sketch 3.4.4 (17249) - http://www.bohemiancoding.com/sketch -->
    <title>Washing_machine</title>
    <desc>Created with Sketch.</desc>
    <defs></defs>
    <g id="Page-1" stroke="none" stroke-width="1" fill="none" fill-rule="evenodd" sketch:type="MSPage">
        <g id="APPLIANCES_Washing-machine" sketch:type="MSLayerGroup" transform="translate(-433.000000, -149.000000)" fill="#F44336">
            <g id="Washing_machine" transform="translate(433.000000, 149.000000)" sketch:type="MSShapeGroup">
                <path d="M25,21 C16.2,21 9,28.2 9,37 C9,45.8 16.2,53 25,53 C33.8,53 41,45.8 41,37 C41,28.2 33.8,21 25,21 L25,21 Z M25,51 C17.3,51 11,44.7 11,37 C11,29.3 17.3,23 25,23 C32.7,23 39,29.3 39,37 C39,44.7 32.7,51 25,51 L25,51 Z" id="Shape"></path>
                <path d="M45,14 L43,14 C42.4,14 42,14.4 42,15 C42,15.6 42.4,16 43,16 L45,16 C45.6,16 46,15.6 46,15 C46,14.4 45.6,14 45,14 L45,14 Z" id="Shape"></path>
                <path d="M45,8 C45,5.8 43.2,4 41,4 C38.8,4 37,5.8 37,8 C37,10.2 38.8,12 41,12 C43.2,12 45,10.2 45,8 L45,8 Z M41,10 C39.9,10 39,9.1 39,8 C39,6.9 39.9,6 41,6 C42.1,6 43,6.9 43,8 C43,9.1 42.1,10 41,10 L41,10 Z" id="Shape"></path>
                <path d="M28.3,26.2 C27.7,26.1 27.1,26 26.5,26 C25.9,26 25.5,26.4 25.5,27 C25.5,27.6 25.9,28 26.5,28 C27,28 27.5,28 27.9,28.1 L28.1,28.1 C28.6,28.1 29,27.8 29.1,27.3 C29.2,26.8 28.8,26.3 28.3,26.2 L28.3,26.2 Z" id="Shape"></path>
                <path d="M32.5,28.1 C32.1,27.8 31.4,27.9 31.1,28.3 C30.8,28.7 30.8,29.4 31.3,29.7 C33.3,31.2 34.4,33.5 34.4,36 C34.4,36.6 34.8,37 35.4,37 C36,37 36.4,36.6 36.4,36 C36.5,32.9 35,30 32.5,28.1 L32.5,28.1 Z" id="Shape"></path>
                <path d="M42,0 L8,0 C3.6,0 0,3.6 0,8 L0,56 C0,60.4 3.6,64 8,64 L42,64 C46.4,64 50,60.4 50,56 L50,8 C50,3.6 46.4,0 42,0 L42,0 Z M48,56 C48,59.3 45.3,62 42,62 L8,62 C4.7,62 2,59.3 2,56 L2,16 L39,16 C39.6,16 40,15.6 40,15 C40,14.4 39.6,14 39,14 L2,14 L2,8 C2,4.7 4.7,2 8,2 L42,2 C45.3,2 48,4.7 48,8 L48,56 L48,56 Z" id="Shape"></path>
            </g>
        </g>
    </g>
</svg>